<?xml version="1.0" encoding="UTF-8" standalone="no"?>
<svg xmlns:xlink="http://www.w3.org/1999/xlink" height="18.05px" width="31.0px" xmlns="http://www.w3.org/2000/svg">
  <g transform="matrix(1, 0, 0, 1, -0.25, 0.15)">
    <path d="M0.85 -0.05 L15.75 8.55 Q16.3 8.85 15.75 9.2 L0.85 17.8 0.4 17.85 Q0.25 17.75 0.25 17.45 L0.25 0.3 Q0.25 0.0 0.4 -0.1 L0.85 -0.05" fill="#333333" fill-rule="evenodd" stroke="none"/>
    <path d="M14.8 -0.05 L29.55 8.55 Q30.05 8.85 29.55 9.2 L14.8 17.8 14.4 17.85 Q14.25 17.75 14.25 17.45 L14.25 0.3 Q14.25 0.0 14.4 -0.1 L14.8 -0.05" fill="#333333" fill-rule="evenodd" stroke="none"/>
    <path d="M31.25 17.25 L28.3 17.25 28.3 0.5 31.25 0.5 31.25 17.25" fill="#333333" fill-rule="evenodd" stroke="none"/>
  </g>
</svg>
