<?xml version="1.0" encoding="UTF-8" standalone="no"?>
<svg xmlns:xlink="http://www.w3.org/1999/xlink" height="27.9px" width="22.0px" xmlns="http://www.w3.org/2000/svg">
  <g transform="matrix(1, 0, 0, 1, 0.0, -0.1)">
    <path d="M20.0 9.0 L20.0 24.65 Q20.0 26.05 19.0 27.0 18.05 28.0 16.7 28.0 L5.25 28.0 Q3.9 28.0 2.95 27.0 2.0 26.05 2.0 24.65 L2.0 9.0 20.0 9.0 M13.25 13.25 L13.25 23.15 Q13.25 23.6 13.55 23.9 L14.25 24.2 Q14.65 24.2 14.95 23.9 L15.3 23.15 15.3 13.25 14.95 12.55 Q14.65 12.25 14.25 12.25 13.85 12.25 13.55 12.55 13.25 12.85 13.25 13.25 M7.05 12.55 Q6.75 12.85 6.75 13.25 L6.7 13.25 6.7 23.15 6.75 23.15 Q6.75 23.6 7.05 23.9 L7.7 24.2 8.4 23.9 8.7 23.15 8.7 13.25 8.4 12.55 Q8.1 12.25 7.7 12.25 7.3 12.25 7.05 12.55 M13.95 4.9 L13.95 2.65 Q13.95 2.25 13.55 2.25 L8.45 2.25 Q8.05 2.25 8.05 2.65 L8.05 4.9 13.95 4.9 M22.0 4.9 L22.0 8.0 0.0 8.0 0.0 4.9 5.65 4.9 5.65 2.65 Q5.65 1.6 6.4 0.85 7.2 0.1 8.2 0.1 L13.8 0.1 Q14.8 0.1 15.6 0.85 16.35 1.6 16.35 2.65 L16.35 4.9 22.0 4.9" fill="#848484" fill-rule="evenodd" stroke="none"/>
  </g>
</svg>
